<svg xmlns="http://www.w3.org/2000/svg" xmlns:xlink="http://www.w3.org/1999/xlink" viewBox="0 0 30 30"><defs><style>.cls-1{fill:none;}.cls-2{clip-path:url(#clip-path);}.cls-3{fill:#4a89d9;}.cls-4{fill:#4fc0e8;}.cls-5{fill:#f68e00;}.cls-6{fill:#ffde50;}.cls-7{fill:#ffbd00;}.cls-8{fill:#e5c335;}</style><clipPath id="clip-path"><rect class="cls-1" x="6.1614" y="6.22795" width="17.6772" height="17.5441"/></clipPath></defs><g id="Layer_2" data-name="Layer 2"><g class="cls-2"><path class="cls-3" d="M22.5558,18.317l-8.79994-.381a1.22961,1.22961,0,0,1,0-2.45692l8.79994-.38105a1.22974,1.22974,0,0,1,1.2828,1.22847v.7621a1.22943,1.22943,0,0,1-1.2828,1.2284Z"/><path class="cls-4" d="M14.26683,13.2735H8.313v6.86815h5.95381Z"/><path class="cls-3" d="M14.53209,18.852H8.04776a.43927.43927,0,0,0-.43925.4392v1.699a.43927.43927,0,0,0,.43925.4392h6.48433a.43927.43927,0,0,0,.43925-.4392v-1.699A.43927.43927,0,0,0,14.53209,18.852Z"/><path class="cls-3" d="M14.53209,12.23441H8.04776a.43925.43925,0,0,0-.43925.43925v1.69891a.43925.43925,0,0,0,.43925.43925h6.48433a.43925.43925,0,0,0,.43925-.43925V12.67366A.43925.43925,0,0,0,14.53209,12.23441Z"/><path class="cls-5" d="M15.9,21.19465H6.67985a.51843.51843,0,0,0-.51845.5184v1.5405a.51845.51845,0,0,0,.51845.5185H15.9a.51843.51843,0,0,0,.5184-.5185v-1.5405A.51841.51841,0,0,0,15.9,21.19465Z"/><path class="cls-6" d="M22.0016,12.60485a3.78283,3.78283,0,0,0,.7436-1.13453c.0055-.01313.0072-.0271.0125-.04023a3.65522,3.65522,0,0,0,.0101-2.77581c-.0148-.03774-.0217-.07731-.0375-.11438a3.76485,3.76485,0,0,0-.6967-1.063c-.0407-.04489-.0756-.09044-.1185-.13334-.0364-.03624-.0645-.0803-.1022-.11505a3.7864,3.7864,0,0,0-.6471-.47981c-.0718-.04223-.157-.06068-.2318-.09826-.0982-.04954-.197-.08612-.2997-.127A3.72161,3.72161,0,0,0,19.5524,6.269c-.0573-.00465-.1052-.03624-.1632-.0384-.0158.0005-.0286.00964-.0442.01047-.0333-.00083-.0632-.01313-.0968-.01313a3.78847,3.78847,0,1,0,0,7.57693c.0366,0,.0703-.00981.1066-.01081.0121.0005.0221.00765.0344.00815.0306-.00116.0555-.01845.086-.02028a3.77,3.77,0,0,0,1.3079-.30757c.0318-.01414.0582-.03359.0895-.04855a3.79088,3.79088,0,0,0,1.0828-.76494C21.9726,12.64325,21.9848,12.6228,22.0016,12.60485Z"/><path class="cls-7" d="M21.755,8.4724a2.93928,2.93928,0,0,0-2.4706-1.39954l-.0362-.00033a2.9439,2.9439,0,0,0-2.9439,2.94388l.0003.03625A2.94381,2.94381,0,1,0,21.755,8.4724Z"/><path class="cls-8" d="M20.6564,10.794l-1.374.703-1.374-.703V9.409h2.748Z"/><path class="cls-5" d="M19.2834,9.409h1.373v1.385l-1.373.703Z"/><path class="cls-6" d="M19.2834,10.112l-1.374-.703,1.374-.704,1.373.704Z"/><path class="cls-8" d="M19.2834,10.112l1.373-.703-1.373-.704Z"/><path class="cls-3" d="M11.39329,17.92a.09572.09572,0,0,1,.0943.0943v1.0675H11.299v-1.0675a.09334.09334,0,0,1,.05806-.0874A.09188.09188,0,0,1,11.39329,17.92Z"/><path class="cls-3" d="M11.64616,17.75825a.25668.25668,0,1,1-.07526-.1813A.25689.25689,0,0,1,11.64616,17.75825Zm-.41885,0a.16214.16214,0,1,0,.04758-.1147A.1622.1622,0,0,0,11.22731,17.75825Z"/><path class="cls-3" d="M10.60111,17.29755a.11111.11111,0,0,1,.11319.1131v1.6711h-.23013v-1.6711a.11424.11424,0,0,1,.11694-.1131Z"/><path class="cls-3" d="M12.99158,16.08189A.31226.31226,0,1,1,12.9,15.86142.31218.31218,0,0,1,12.99158,16.08189Zm-.50944,0a.19734.19734,0,1,0,.05788-.13943A.19729.19729,0,0,0,12.48214,16.08189Z"/><path class="cls-3" d="M10.89006,17.09945a.3123.3123,0,1,1-.09154-.2204A.31229.31229,0,0,1,10.89006,17.09945Zm-.50943,0a.19729.19729,0,1,0,.05787-.1394A.19694.19694,0,0,0,10.38063,17.09945Z"/><path class="cls-3" d="M10.23052,16.08189a.31225.31225,0,1,1-.09153-.22047A.31218.31218,0,0,1,10.23052,16.08189Zm-.50943,0a.19734.19734,0,1,0,.05788-.13943A.19737.19737,0,0,0,9.72109,16.08189Z"/><path class="cls-3" d="M12.0572,17.29755a.11428.11428,0,0,1,.11694.1131v1.6711H11.944v-1.6711a.111.111,0,0,1,.1132-.1131Z"/><path class="cls-3" d="M12.36776,17.09945a.31228.31228,0,1,1-.09153-.2204A.31221.31221,0,0,1,12.36776,17.09945Zm-.50943,0a.19731.19731,0,1,0,.05788-.1394A.197.197,0,0,0,11.85833,17.09945Z"/><path class="cls-3" d="M12.78173,16.35645V17.82a.09511.09511,0,0,1-.05249.0847l-.62938.3106a.09457.09457,0,0,1-.12654-.0429.09442.09442,0,0,1,.01368-.1041.09371.09371,0,0,1,.02924-.0225l.57688-.2844v-1.405a.09431.09431,0,0,1,.18861,0Z"/><path class="cls-3" d="M9.8219,16.40945v1.4636a.09511.09511,0,0,0,.05249.0847l.62938.3106a.0945.0945,0,0,0,.08362-.1695l-.57688-.2844v-1.405a.09431.09431,0,0,0-.18861,0Z"/></g></g></svg>