<svg xmlns="http://www.w3.org/2000/svg" viewBox="0 0 30 30"><defs><style>.cls-1{fill:#4a89d9;}.cls-2{fill:#4fc0e8;}.cls-3{fill:#f5f6f8;}.cls-4{fill:#ffde50;}.cls-5{fill:#ffea94;}.cls-6{fill:#ffbd00;}.cls-7{fill:#e5c335;}.cls-8{fill:#f68e00;}</style></defs><g id="Layer_2" data-name="Layer 2"><rect class="cls-1" x="6.55815" y="6.48971" width="14.94431" height="16.06605" rx="1.21635"/><rect class="cls-2" x="7.3474" y="7.62659" width="13.36581" height="14.36907" rx="1.08787"/><rect class="cls-1" x="12.73492" y="18.16549" width="2.59077" height="3.83017"/><path class="cls-1" d="M16.86094,14.03146l-.07194.15193-.88756,1.83112L15.34169,17.158H12.71891l-.55974-1.15146-.88757-1.82311-.07194-.15193s1.75913-2.81468,2.51077-4.42193A3.02293,3.02293,0,0,0,14.0303,8.674a1.56443,1.56443,0,0,0,.096.3838c.056.15994.13592.34383.23187.55174C15.10182,11.21678,16.86094,14.03146,16.86094,14.03146Z"/><path class="cls-3" d="M14.356,13.16991V9.60911a3.21892,3.21892,0,0,1-.32834-.93382,3.09466,3.09466,0,0,1-.31617.93382v3.556a.5339.5339,0,1,0,.64451.00479Z"/><rect class="cls-3" x="12.16717" y="17.15796" width="3.72626" height="1.28738" rx="0.64369"/><path class="cls-4" d="M22.02239,23.1783a3.87137,3.87137,0,0,0,.76127-1.16139c.00562-.01345.00732-.02774.01277-.04119a3.74187,3.74187,0,0,0,.01038-2.84152c-.01515-.03863-.0223-.07914-.03846-.11709a3.855,3.855,0,0,0-.71311-1.08821c-.0417-.04595-.07744-.09258-.12135-.13649-.03727-.03711-.066-.08221-.10466-.11778a3.87425,3.87425,0,0,0-.66239-.49117c-.07352-.04323-.16066-.06212-.23725-.10058-.10058-.05072-.20168-.08816-.30685-.13a3.809,3.809,0,0,0-1.10744-.26039c-.05872-.00477-.10773-.03711-.16713-.03932-.01617.00051-.02927.00987-.04527.01072-.034-.00085-.06467-.01344-.09905-.01344a3.87816,3.87816,0,1,0,0,7.75632c.03744,0,.072-.01.10909-.01106.01242.00051.02263.00783.03523.00834.03131-.00119.05684-.01889.088-.02076a3.85961,3.85961,0,0,0,1.3389-.31486c.0325-.01446.05957-.03438.09156-.04969a3.87938,3.87938,0,0,0,1.10846-.78306C21.99278,23.21761,22.00521,23.19668,22.02239,23.1783Z"/><path class="cls-5" d="M21.8292,17.67467l-5.47956,5.47957a3.89446,3.89446,0,0,1-.49117-.66245l5.30844-5.30829A3.8764,3.8764,0,0,1,21.8292,17.67467Z"/><path class="cls-5" d="M22.81441,19.11085l-5.02859,5.02859a3.873,3.873,0,0,1-.98188-.56415l5.44648-5.44648A3.86588,3.86588,0,0,1,22.81441,19.11085Z"/><path class="cls-6" d="M21.77,18.948a3.00882,3.00882,0,0,0-2.529-1.43268l-.0371-.00034a3.01355,3.01355,0,0,0-3.01359,3.01359l.00034.0371A3.01345,3.01345,0,1,0,21.77,18.948Z"/><polygon class="cls-7" points="20.646 21.324 19.239 22.044 17.833 21.324 17.833 19.906 20.646 19.906 20.646 21.324"/><polygon class="cls-8" points="19.24 19.906 20.646 19.906 20.646 21.324 19.24 22.044 19.24 19.906"/><polygon class="cls-4" points="19.24 20.626 17.833 19.906 19.24 19.186 20.646 19.906 19.24 20.626"/><polygon class="cls-7" points="19.24 20.626 20.646 19.906 19.24 19.186 19.24 20.626"/><path class="cls-1" d="M8.63319,14.52274a.241.241,0,0,1-.24112-.24111V10.09891a.241.241,0,0,1,.24112-.24111H9.80342V7.38547a.24111.24111,0,0,1,.48222,0v2.71344a.241.241,0,0,1-.24111.24112H8.8743v3.9416A.241.241,0,0,1,8.63319,14.52274Z"/><path class="cls-1" d="M8.65635,15.86968a.79387.79387,0,1,1,.79331-.79387A.79436.79436,0,0,1,8.65635,15.86968Zm0-1.296a.50208.50208,0,1,0,.50152.50208A.502.502,0,0,0,8.65635,14.57373Z"/><path class="cls-1" d="M19.15995,14.52274a.241.241,0,0,0,.24112-.24111V10.09891a.241.241,0,0,0-.24112-.24111H17.98972V7.38547a.24111.24111,0,0,0-.48222,0v2.71344a.241.241,0,0,0,.24111.24112h1.17023v3.9416A.241.241,0,0,0,19.15995,14.52274Z"/><path class="cls-1" d="M18.34348,15.07581a.79331.79331,0,1,1,.79331.79387A.79436.79436,0,0,1,18.34348,15.07581Zm.29179,0a.50152.50152,0,1,0,.50152-.50208A.502.502,0,0,0,18.63527,15.07581Z"/></g></svg>