<svg xmlns="http://www.w3.org/2000/svg" viewBox="0 0 30 30"><defs><style>.cls-1{fill:#f5f6f8;}.cls-2{fill:#e4e8eb;}.cls-3{fill:#4fc0e8;}.cls-4{fill:#4a89d9;}.cls-5{fill:#f68e00;}.cls-6{fill:#ffde50;}.cls-7{fill:#fde6bd;}.cls-8{fill:#37224b;}.cls-9{fill:#20c6aa;}.cls-10{fill:#2ee0c8;}.cls-11{fill:#ffbd00;}.cls-12{fill:#e5c335;}</style></defs><g id="Layer_2" data-name="Layer 2"><rect class="cls-1" x="5.81999" y="6.44823" width="18" height="18" rx="0.96002"/><path class="cls-2" d="M7.08317,11.7133a.12492.12492,0,0,1-.125-.125V10.26066a.125.125,0,0,1,.25,0V11.5883A.12492.12492,0,0,1,7.08317,11.7133Z"/><path class="cls-2" d="M7.08317,15.63123a.12492.12492,0,0,1-.125-.125V14.17859a.125.125,0,0,1,.25,0v1.32764A.12492.12492,0,0,1,7.08317,15.63123Z"/><path class="cls-2" d="M7.08317,19.54916a.12492.12492,0,0,1-.125-.125V18.09652a.125.125,0,0,1,.25,0v1.32764A.12492.12492,0,0,1,7.08317,19.54916Z"/><path class="cls-2" d="M7.08317,23.46709a.12492.12492,0,0,1-.125-.125V22.01445a.125.125,0,0,1,.25,0v1.32764A.12492.12492,0,0,1,7.08317,23.46709Z"/><path class="cls-2" d="M7.08317,13.63029a.68018.68018,0,1,1,.67969-.68017A.68059.68059,0,0,1,7.08317,13.63029Zm0-1.11035a.43018.43018,0,1,0,.42969.43018A.43012.43012,0,0,0,7.08317,12.51994Z"/><path class="cls-2" d="M7.08317,17.48137a.68018.68018,0,1,1,.67969-.68018A.6806.6806,0,0,1,7.08317,17.48137Zm0-1.11036a.43018.43018,0,1,0,.42969.43018A.43012.43012,0,0,0,7.08317,16.371Z"/><path class="cls-2" d="M7.08317,21.33244a.67993.67993,0,1,1,.67969-.68018A.6806.6806,0,0,1,7.08317,21.33244Zm0-1.10986a.42993.42993,0,1,0,.42969.42968A.43.43,0,0,0,7.08317,20.22258Z"/><path class="cls-2" d="M22.448,11.7133a.12492.12492,0,0,1-.125-.125V10.26066a.125.125,0,0,1,.25,0V11.5883A.12493.12493,0,0,1,22.448,11.7133Z"/><path class="cls-2" d="M22.448,15.63123a.12492.12492,0,0,1-.125-.125V14.17859a.125.125,0,0,1,.25,0v1.32764A.12493.12493,0,0,1,22.448,15.63123Z"/><path class="cls-2" d="M22.448,19.54916a.12492.12492,0,0,1-.125-.125V18.09652a.125.125,0,1,1,.25,0v1.32764A.12493.12493,0,0,1,22.448,19.54916Z"/><path class="cls-2" d="M22.448,23.46709a.12492.12492,0,0,1-.125-.125V22.01445a.125.125,0,1,1,.25,0v1.32764A.12493.12493,0,0,1,22.448,23.46709Z"/><path class="cls-2" d="M22.448,13.63029a.68018.68018,0,1,1,.67968-.68017A.68059.68059,0,0,1,22.448,13.63029Zm0-1.11035a.43018.43018,0,1,0,.42968.43018A.43011.43011,0,0,0,22.448,12.51994Z"/><path class="cls-2" d="M22.448,17.48137a.68018.68018,0,1,1,.67968-.68018A.6806.6806,0,0,1,22.448,17.48137Zm0-1.11036a.43018.43018,0,1,0,.42968.43018A.43012.43012,0,0,0,22.448,16.371Z"/><path class="cls-2" d="M22.448,21.33244a.67993.67993,0,1,1,.67968-.68018A.6806.6806,0,0,1,22.448,21.33244Zm0-1.10986a.42993.42993,0,1,0,.42968.42968A.43.43,0,0,0,22.448,20.22258Z"/><path class="cls-2" d="M10.98512,13.55791a.12492.12492,0,0,1-.125-.125V12.10528a.125.125,0,0,1,.25,0v1.32763A.12493.12493,0,0,1,10.98512,13.55791Z"/><path class="cls-2" d="M10.98512,17.47584a.12492.12492,0,0,1-.125-.125V16.02321a.125.125,0,0,1,.25,0v1.32763A.12493.12493,0,0,1,10.98512,17.47584Z"/><path class="cls-2" d="M10.98512,21.39377a.12492.12492,0,0,1-.125-.125V19.94114a.125.125,0,0,1,.25,0v1.32763A.12493.12493,0,0,1,10.98512,21.39377Z"/><path class="cls-2" d="M10.98512,11.557a.68018.68018,0,1,1,.67968-.68018A.6806.6806,0,0,1,10.98512,11.557Zm0-1.11035a.43018.43018,0,1,0,.42968.43017A.43011.43011,0,0,0,10.98512,10.44663Z"/><path class="cls-2" d="M10.98512,15.40805a.68018.68018,0,1,1,.67968-.68017A.68059.68059,0,0,1,10.98512,15.40805Zm0-1.11035a.43018.43018,0,1,0,.42968.43018A.43011.43011,0,0,0,10.98512,14.2977Z"/><path class="cls-2" d="M10.98512,19.25913a.67994.67994,0,1,1,.67968-.68018A.6806.6806,0,0,1,10.98512,19.25913Zm0-1.10987a.42994.42994,0,1,0,.42968.42969A.43.43,0,0,0,10.98512,18.14926Z"/><path class="cls-2" d="M10.98789,23.40613a.67994.67994,0,1,1,.67969-.68018A.6806.6806,0,0,1,10.98789,23.40613Zm0-1.10987a.42994.42994,0,1,0,.42969.42969A.43.43,0,0,0,10.98789,22.29626Z"/><path class="cls-2" d="M19.24214,13.55791a.12493.12493,0,0,1-.125-.125V12.10528a.125.125,0,0,1,.25,0v1.32763A.12492.12492,0,0,1,19.24214,13.55791Z"/><path class="cls-2" d="M19.24214,17.47584a.12493.12493,0,0,1-.125-.125V16.02321a.125.125,0,0,1,.25,0v1.32763A.12492.12492,0,0,1,19.24214,17.47584Z"/><path class="cls-2" d="M19.24214,21.39377a.12493.12493,0,0,1-.125-.125V19.94114a.125.125,0,1,1,.25,0v1.32763A.12492.12492,0,0,1,19.24214,21.39377Z"/><path class="cls-2" d="M19.24214,11.557a.68018.68018,0,1,1,.67969-.68018A.68059.68059,0,0,1,19.24214,11.557Zm0-1.11035a.43018.43018,0,1,0,.42969.43017A.43011.43011,0,0,0,19.24214,10.44663Z"/><path class="cls-2" d="M19.24214,15.40805a.68018.68018,0,1,1,.67969-.68017A.68058.68058,0,0,1,19.24214,15.40805Zm0-1.11035a.43018.43018,0,1,0,.42969.43018A.43011.43011,0,0,0,19.24214,14.2977Z"/><path class="cls-2" d="M19.24214,19.25913a.67994.67994,0,1,1,.67969-.68018A.68059.68059,0,0,1,19.24214,19.25913Zm0-1.10987a.42994.42994,0,1,0,.42969.42969A.43.43,0,0,0,19.24214,18.14926Z"/><path class="cls-2" d="M19.24492,23.40613a.67994.67994,0,1,1,.67969-.68018A.6806.6806,0,0,1,19.24492,23.40613Zm0-1.10987a.42994.42994,0,1,0,.42969.42969A.43.43,0,0,0,19.24492,22.29626Z"/><path class="cls-3" d="M23.82,7.40819v2.04h-18v-2.04a.96024.96024,0,0,1,.96-.96H22.86A.96023.96023,0,0,1,23.82,7.40819Z"/><circle class="cls-4" cx="7.46071" cy="7.90118" r="0.5748"/><circle class="cls-4" cx="9.552" cy="7.90118" r="0.5748"/><circle class="cls-4" cx="11.64329" cy="7.90118" r="0.5748"/><path class="cls-5" d="M15.93572,21.71243c-.02476.28088-.07433.80966-.10741,1.16492,0,.06611-.00822.11568-.00822.16525a.1124.1124,0,0,1-.17352.0826l-.24785-.17347-.19828.43786-.11568.26439a.28821.28821,0,0,1-.52878,0l-.30569-.70225-.25612.17347a.1124.1124,0,0,1-.17352-.0826c-.02476-.3305-.0826-.99972-.11563-1.33017a1.20376,1.20376,0,0,1,1.11535-1.61109A1.19652,1.19652,0,0,1,15.93572,21.71243Z"/><path class="cls-5" d="M12.80444,18.39937a3.06382,3.06382,0,0,0-2.1481.66922c-.05784.04957-.09914.09087-.14049.13217a.22353.22353,0,0,1-.38-.10741,3.54522,3.54522,0,0,1,1.52845-3.51962l.14044.33877Z"/><path class="cls-5" d="M19.50491,19.09335a.22353.22353,0,0,1-.38.10741,2.6147,2.6147,0,0,0-1.47893-.73533,2.92755,2.92755,0,0,0-.68571-.06606H16.8363l.12395-.29747,1.01621-2.52817a3.67221,3.67221,0,0,1,.48743.40488A3.29833,3.29833,0,0,1,19.50491,19.09335Z"/><path class="cls-5" d="M18.46389,15.97861,17.646,18.46543a2.92755,2.92755,0,0,0-.68571-.06606c0-.09092-.00827-.19006,0-.29747l1.01621-2.52817A3.67221,3.67221,0,0,1,18.46389,15.97861Z"/><path class="cls-6" d="M18.06733,15.0863l-.62792,3.37913H12.14349l-.62792-3.37913a5.58891,5.58891,0,0,1,1.09059-4.36236,5.75392,5.75392,0,0,0,4.36231-.00822A5.63824,5.63824,0,0,1,18.06733,15.0863Z"/><path class="cls-7" d="M16.96847,10.71572a5.68969,5.68969,0,0,1-3.70136.223,1.81656,1.81656,0,0,1,.14044-.20655,5.962,5.962,0,0,1,1.78462-1.59456,6.11733,6.11733,0,0,1,.51224.33877,13.68,13.68,0,0,1,1.04929.98313A2.074,2.074,0,0,1,16.96847,10.71572Z"/><path class="cls-5" d="M16.96847,10.71572a5.75392,5.75392,0,0,1-4.36231.00822,6.13584,6.13584,0,0,1,2.18118-1.80938l.47094.26439q.2354.14871.44613.29747A8.39749,8.39749,0,0,1,16.96847,10.71572Z"/><circle class="cls-8" cx="14.79005" cy="14.10671" r="1.74948"/><path class="cls-9" d="M16.24141,14.10312A1.44009,1.44009,0,0,1,14.86167,15.549a.22836.22836,0,0,1-.07433.00827,1.45,1.45,0,1,1,0-2.9.46161.46161,0,0,1,.18174.02476A1.41917,1.41917,0,0,1,16.24141,14.10312Z"/><path class="cls-10" d="M16.24141,14.10312A1.44009,1.44009,0,0,1,14.86167,15.549a1.44322,1.44322,0,0,1,.10741-2.86694A1.41917,1.41917,0,0,1,16.24141,14.10312Z"/><path class="cls-5" d="M15.27477,17.41619v2.0655a.4131.4131,0,0,1-.8262,0v-2.0655a.4131.4131,0,0,1,.8262,0Z"/><path class="cls-5" d="M14.86167,17.00309v2.8917a.40912.40912,0,0,1-.4131-.4131v-2.0655A.41431.41431,0,0,1,14.86167,17.00309Z"/><path class="cls-1" d="M16.19154,15.40486a1.88377,1.88377,0,0,0,.37044-.56514l.00621-.02a1.82081,1.82081,0,0,0,.005-1.38269c-.00737-.0188-.01085-.03851-.01872-.057a1.87558,1.87558,0,0,0-.347-.52952c-.02029-.02236-.03768-.045-.059-.06642-.01814-.01805-.03213-.04-.05093-.05731a1.8857,1.8857,0,0,0-.32232-.239c-.03578-.021-.07818-.03023-.11544-.04894-.04895-.02468-.09814-.0429-.14932-.06328a1.85342,1.85342,0,0,0-.53888-.1267c-.02857-.00232-.05242-.01806-.08133-.01913-.00786.00024-.01424.0048-.022.00521-.01656-.00041-.03147-.00654-.04819-.00654a1.88712,1.88712,0,1,0,0,3.77424c.01821,0,.035-.00489.05308-.00538.00605.00024.011.0038.01714.00405.01524-.00058.02766-.00919.04282-.0101a1.878,1.878,0,0,0,.65151-.15321c.01582-.007.029-.01673.04455-.02418a1.88757,1.88757,0,0,0,.53938-.381C16.17713,15.424,16.18318,15.4138,16.19154,15.40486Z"/><path class="cls-11" d="M16.06873,13.34639a1.46405,1.46405,0,0,0-1.23064-.69714l-.018-.00017a1.4664,1.4664,0,0,0-1.46642,1.46642l.00016.018a1.46635,1.46635,0,1,0,2.71495-.78716Z"/><polygon class="cls-12" points="15.522 14.503 14.837 14.853 14.153 14.503 14.153 13.813 15.522 13.813 15.522 14.503"/><polygon class="cls-5" points="14.838 13.813 15.522 13.813 15.522 14.503 14.838 14.853 14.838 13.813"/><polygon class="cls-6" points="14.838 14.163 14.153 13.813 14.838 13.462 15.522 13.813 14.838 14.163"/><polygon class="cls-12" points="14.838 14.163 15.522 13.813 14.838 13.462 14.838 14.163"/></g></svg>