<svg xmlns="http://www.w3.org/2000/svg" viewBox="0 0 30 30"><defs><style>.cls-1{fill:#57cee6;}.cls-2{fill:#f5f6f8;}.cls-3{fill:#4a89d9;}.cls-4{fill:#f7c4a8;}.cls-5{fill:#fd8d89;}.cls-6{fill:#ffd6d0;}.cls-7{fill:#082233;}.cls-8{fill:#ffbd00;}.cls-9{fill:#f68e00;}.cls-10{fill:#e5c335;}.cls-11{fill:#ffde50;}</style></defs><g id="Layer_2" data-name="Layer 2"><path class="cls-1" d="M21.51059,23.44682a.42973.42973,0,0,1-.398.47384c-.00949.00943-.02846.00943-.05686.00943H8.57453a.43745.43745,0,0,1-.44539-.48327L8.29972,21.703A4.73445,4.73445,0,0,1,10.432,18.25341a.8588.8588,0,0,1,.15166-.10423,4.06992,4.06992,0,0,1,1.14667-.47385,4.153,4.153,0,0,1,1.02353-.13269h4.24565a1.52937,1.52937,0,0,1,.29379.019,3.28046,3.28046,0,0,1,.70128.13269,4.48342,4.48342,0,0,1,1.21308.5402A4.67416,4.67416,0,0,1,21.31155,21.703Z"/><path class="cls-1" d="M20.69559,23.44682a.42982.42982,0,0,1-.398.47384c-.00948.00943-.02846.00943-.05692.00943H8.57453a.43745.43745,0,0,1-.44539-.48327L8.29972,21.703A4.73445,4.73445,0,0,1,10.432,18.25341a.8588.8588,0,0,1,.15166-.10423,4.06992,4.06992,0,0,1,1.14667-.47385,4.153,4.153,0,0,1,1.02353-.13269h3.43065a1.52953,1.52953,0,0,1,.29378.019,3.28055,3.28055,0,0,1,.70129.13269,4.48355,4.48355,0,0,1,1.21308.5402,4.59319,4.59319,0,0,1,.815.67282A4.66165,4.66165,0,0,1,20.49655,21.703Z"/><path class="cls-2" d="M19.2077,18.2345v.67282a4.59319,4.59319,0,0,0-.815-.67282,4.48355,4.48355,0,0,0-1.21308-.5402,3.28055,3.28055,0,0,0-.70129-.13269,1.52953,1.52953,0,0,0-.29378-.019h.815a1.52937,1.52937,0,0,1,.29379.019,3.28046,3.28046,0,0,1,.70128.13269,1.72975,1.72975,0,0,1,.23693.07578H18.241A4.54144,4.54144,0,0,1,19.2077,18.2345Z"/><path class="cls-2" d="M19.2077,18.90732v5.02277H10.432V18.25341a.8588.8588,0,0,1,.15166-.10423,4.06992,4.06992,0,0,1,1.14667-.47385,4.153,4.153,0,0,1,1.02353-.13269h3.43065a1.52953,1.52953,0,0,1,.29378.019,3.28055,3.28055,0,0,1,.70129.13269,4.37433,4.37433,0,0,1,.82449.32219c.13269.06634.26538.14217.38859.218A4.59319,4.59319,0,0,1,19.2077,18.90732Z"/><path class="cls-2" d="M18.241,17.77008l-.23692.24641a4.4589,4.4589,0,0,0-.76763-.30327c-.01892-.00943-.03789-.00943-.05686-.01892a3.28055,3.28055,0,0,0-.70129-.13269h-.02845a1.24979,1.24979,0,0,0-.26533-.019h.815a1.52937,1.52937,0,0,1,.29379.019,3.28046,3.28046,0,0,1,.70128.13269,1.72975,1.72975,0,0,1,.23693.07578Z"/><path class="cls-2" d="M18.00411,18.01649l-1.37417,1.48788-.46436.49282-.93821,1.014a.5244.5244,0,0,1-.7866-.02845l-.89084-1.08039-.6918-.85289-1.12776-1.37417a4.64236,4.64236,0,0,1,.616-.10423,2.84306,2.84306,0,0,1,.4075-.02846h3.43065a1.24979,1.24979,0,0,1,.26533.019h.02845a3.28055,3.28055,0,0,1,.70129.13269c.019.00949.03794.00949.05686.01892A4.4589,4.4589,0,0,1,18.00411,18.01649Z"/><polygon class="cls-3" points="14.009 19.359 14.82 20.071 15.891 19.148 14.82 18.225 14.009 19.359"/><path class="cls-4" d="M16.49576,17.69743c0,.32887-.71052.69816-1.67589.69816-.0531,0-.18065.055-.23368.04447-.8911-.04248-1.5807-.435-1.5807-.74263,0-.31825.6896-.57292,1.5807-.60471h.15916C15.71072,17.09272,16.49576,17.35794,16.49576,17.69743Z"/><path class="cls-5" d="M16.16558,17.67533v.00949A6.61065,6.61065,0,0,1,15.7107,19.457l-.89083-1.06141-1.00456,1.1941a6.28489,6.28489,0,0,1-.80551-1.89539.187.187,0,0,1,.05686-.13269,2.40323,2.40323,0,0,1,1.59212-.46436C15.54013,17.12565,16.15609,17.37206,16.16558,17.67533Z"/><path class="cls-5" d="M16.49576,17.68905H13.00549l.04241-.10606.01062-.04248.47741-1.38975.07427-.20157.47741-1.34734V14.5913h1.3261l.01062.02117.46679,1.33672.0742.20157.47741,1.38975.01062.02124A.30118.30118,0,0,1,16.49576,17.68905Z"/><path class="cls-1" d="M17.29334,17.56161l-.05686.15161-.60654,1.79115-.16109.45488a.17127.17127,0,0,1-.29379.04743l-.00948-.00949L15.7107,19.457l-.89083-1.06141-1.00456,1.1941-.26538.3127-.08526.10429a.17126.17126,0,0,1-.29378-.04743l-.31276-.90975-.51173-1.4784a2.84306,2.84306,0,0,1,.4075-.02846h.4075l.02846.019,1.63.6634,1.34571-.54968.2843-.11372.03794-.019h.51173A1.52937,1.52937,0,0,1,17.29334,17.56161Z"/><path class="cls-6" d="M18.32775,11.14371v2.18617a1.98023,1.98023,0,0,1-.01061.25593,3.19249,3.19249,0,0,1-.11735.65058,3.501,3.501,0,0,1-2.30347,2.46345,3.329,3.329,0,0,1-1.14109.192,1.29008,1.29008,0,0,1-.20263-.01067,3.05551,3.05551,0,0,1-.93846-.18128A3.51526,3.51526,0,0,1,11.3,14.23639a3.1877,3.1877,0,0,1-.11729-.65058,2.13786,2.13786,0,0,1-.01068-.2666v-2.1755a2.45887,2.45887,0,0,1,.15993-.88516l.032-.064a3.10533,3.10533,0,0,1,.24526-.44789,2.41116,2.41116,0,0,1,2.01557-1.06643h2.26084a2.60984,2.60984,0,0,1,.75719.11729,2.5173,2.5173,0,0,1,1.26905.94914,2.92777,2.92777,0,0,1,.22391.44789.52246.52246,0,0,1,.032.07466A2.361,2.361,0,0,1,18.32775,11.14371Z"/><path class="cls-3" d="M16.43253,9.74307a.766.766,0,0,0-.48669-.06445,5.86527,5.86527,0,0,0-2.57545,1.13623,1.87464,1.87464,0,0,1-1.53331-.58773s.2,2.253-.56666,2.253c0,0-1.53331-3.52639.2-4.21208,0,0,4.33326-2.51419,5.33324-1.20812a2.35437,2.35437,0,0,1,.26667,1.37138s2.5-.52243,1.6,2.7101l-.56666,1.79585S18.04264,10.57677,16.43253,9.74307Z"/><ellipse class="cls-6" cx="11.17295" cy="12.69794" rx="0.76995" ry="0.88224"/><path class="cls-6" d="M19.01529,12.70328a.87044.87044,0,0,1-.42432.77442.59217.59217,0,0,1-.35011.10606h-.01062a.82427.82427,0,0,1-.75318-.88048.856.856,0,0,1,.61526-.86993.71648.71648,0,0,1,.14854-.02124.44519.44519,0,0,1,.23343.053.607.607,0,0,1,.31825.22281A.92871.92871,0,0,1,19.01529,12.70328Z"/><path class="cls-7" d="M14.9067,15.29638a3.24135,3.24135,0,0,1-1.1717-.23183c-.03832-.01712-.05036-.05345-.02724-.08144a.0996.0996,0,0,1,.11147-.0199,2.56212,2.56212,0,0,0,1.99728.00278.10129.10129,0,0,1,.11337.013.04994.04994,0,0,1-.01773.08283A2.11682,2.11682,0,0,1,14.9067,15.29638Z"/><path class="cls-7" d="M15.61287,11.66264a1.89226,1.89226,0,0,1,1.4612.43223.02054.02054,0,0,1-.01876.03529c-.24275-.06675-.97063-.26934-1.446-.42766A.02052.02052,0,0,1,15.61287,11.66264Z"/><path class="cls-7" d="M13.63492,11.66264a1.89227,1.89227,0,0,0-1.46121.43223.02054.02054,0,0,0,.01876.03529c.24276-.06675.97063-.26934,1.446-.42766A.02052.02052,0,0,0,13.63492,11.66264Z"/><path class="cls-7" d="M14.95511,14.34676a.07811.07811,0,0,1-.03134-.00642l-.29941-.133a.30527.30527,0,0,1-.21608-.34611l.35623-1.2781a.065.065,0,0,1,.07823-.03993.05415.05415,0,0,1,.04918.06351l-.35623,1.2779c-.02446.08771.03516.17791.15136.22984l.29941.13282a.04853.04853,0,0,1,.026.072A.06928.06928,0,0,1,14.95511,14.34676Z"/><ellipse class="cls-7" cx="13.25401" cy="12.67327" rx="0.19508" ry="0.39902"/><ellipse class="cls-7" cx="16.30422" cy="12.69794" rx="0.19508" ry="0.39902"/><rect class="cls-8" x="12.35453" y="23.23337" width="4.93092" height="0.97938" rx="0.43529"/><path class="cls-9" d="M16.42569,22.5719a2.23416,2.23416,0,0,0,.43928-.67016l.00736-.02377a2.15912,2.15912,0,0,0,.006-1.63967c-.00874-.02229-.01286-.04567-.02219-.06757a2.22431,2.22431,0,0,0-.41149-.62793c-.02406-.02652-.04468-.05343-.07-.07877-.02151-.0214-.03811-.04743-.0604-.06795a2.2351,2.2351,0,0,0-.38222-.28343c-.04243-.02495-.09271-.03585-.1369-.058-.058-.02927-.11638-.05087-.17707-.075a2.19807,2.19807,0,0,0-.639-.15026c-.03388-.00275-.06216-.02141-.09644-.02269-.00932.0003-.01689.0057-.02612.00619-.01964-.00049-.03732-.00776-.05715-.00776a2.23785,2.23785,0,1,0,0,4.4757c.0216,0,.04154-.00579.063-.00638.00717.0003.01306.00452.02032.00481.01808-.00068.03281-.0109.05078-.012a2.22722,2.22722,0,0,0,.7726-.18168c.01875-.00835.03437-.01984.05283-.02868a2.23855,2.23855,0,0,0,.63963-.45185C16.4086,22.59459,16.41577,22.58251,16.42569,22.5719Z"/><path class="cls-8" d="M16.28005,20.13086a1.73624,1.73624,0,0,0-1.45937-.82671l-.0214-.00019a1.73893,1.73893,0,0,0-1.739,1.73895l.00019.02141a1.73888,1.73888,0,1,0,3.21954-.93346Z"/><polygon class="cls-10" points="15.631 21.502 14.82 21.917 14.008 21.502 14.008 20.684 15.631 20.684 15.631 21.502"/><polygon class="cls-9" points="14.82 20.684 15.632 20.684 15.632 21.502 14.82 21.917 14.82 20.684"/><polygon class="cls-11" points="14.82 21.099 14.008 20.684 14.82 20.268 15.632 20.684 14.82 21.099"/><polygon class="cls-10" points="14.82 21.099 15.632 20.684 14.82 20.268 14.82 21.099"/><circle class="cls-9" cx="13.06032" cy="23.76937" r="0.17076"/><circle class="cls-9" cx="13.97246" cy="23.76937" r="0.17076"/><circle class="cls-9" cx="14.88461" cy="23.76937" r="0.17076"/><circle class="cls-9" cx="15.79675" cy="23.76937" r="0.17076"/><circle class="cls-9" cx="16.70889" cy="23.76937" r="0.17076"/></g></svg>